<svg width="94" height="30" viewBox="0 0 94 30" fill="none" xmlns="http://www.w3.org/2000/svg">
<g clip-path="url(#clip0_36_301)">
<path d="M35.9352 17.6965H32.7294L31.566 14.8316H25.9206L24.7747 17.6965H21.5782L27.2778 3.14783H30.2233L35.9352 17.6965ZM26.9467 12.0912H30.5672L28.7557 7.33803L26.9467 12.0912Z" fill="white"/>
<path d="M39.8923 17.6965H36.9464V7.52594H39.8497V8.23162C40.4966 7.60818 41.3637 7.26514 42.2629 7.27665C44.7626 7.27665 46.4041 8.89469 46.4041 11.7792V17.6965H43.4586V12.008C43.4586 10.9303 42.9669 10.0167 41.7741 10.0167C40.3806 10.0167 39.8995 11.0561 39.8995 12.6149L39.8889 17.7016" fill="white"/>
<path d="M58.1292 13.7323C57.6498 16.2022 55.7774 17.9242 53.0254 17.9242C49.9457 17.9242 47.6582 15.661 47.6582 12.6098C47.6582 9.55869 49.9495 7.27673 53.0254 7.27673C55.7083 7.27673 57.5812 8.93952 57.9575 11.3442H54.715C54.6034 10.9615 54.3673 10.627 54.043 10.3939C53.7191 10.1613 53.3267 10.0432 52.9274 10.0586C51.6775 10.0586 50.6799 11.1166 50.6799 12.6098C50.6799 14.103 51.6788 15.1641 52.9713 15.1641C53.4064 15.1794 53.8333 15.0456 54.1819 14.7853C54.5301 14.5245 54.7785 14.1529 54.8859 13.7323H58.1335" fill="white"/>
<path d="M62.2862 17.6965H59.3416V3.14783H62.2862V8.10251C62.9531 7.55365 63.7943 7.25877 64.6589 7.27112C67.1586 7.27112 68.7971 8.88916 68.7971 11.7741V17.6914H65.8533V12.0081C65.8533 10.9304 65.362 10.0167 64.1671 10.0167C62.7724 10.0167 62.2921 11.0561 62.2921 12.6149L62.2862 17.6965Z" fill="white"/>
<path d="M75.4671 7.27673C78.545 7.27673 80.8969 9.56295 80.8969 12.6098C80.8969 15.6567 78.545 17.9242 75.4671 17.9242C72.3895 17.9242 70.0355 15.661 70.0355 12.6098C70.0355 9.55869 72.3895 7.27673 75.4671 7.27673ZM75.4671 15.1837C76.8588 15.1837 77.8807 14.1043 77.8807 12.6098C77.8807 11.1154 76.8588 10.0368 75.4671 10.0368C74.0757 10.0368 73.053 11.1166 73.053 12.6098C73.053 14.103 74.0736 15.1837 75.4671 15.1837Z" fill="white"/>
<path d="M88.9231 11.0126C88.3977 10.5209 87.709 10.2405 86.9889 10.2247C86.0931 10.2247 85.0943 10.7143 85.0943 12.1994V17.6995H82.1488V7.52597H85.0529V8.37611C85.0329 8.37611 85.6372 7.37938 87.092 7.37938C87.4325 7.36404 87.7717 7.42157 88.0879 7.54856C88.4036 7.67512 88.6887 7.86816 88.9231 8.11404V11.0126Z" fill="white"/>
<path d="M90.5753 16.6534V14.1593H91.6377C91.8341 14.1503 92.0306 14.1729 92.2198 14.2266C92.3408 14.2718 92.4431 14.3557 92.5104 14.4656C92.582 14.5841 92.6182 14.7205 92.6148 14.8585C92.6178 14.9864 92.5863 15.1125 92.5232 15.2233C92.5019 15.2583 92.4772 15.2915 92.4503 15.3222C92.3387 15.4385 92.1925 15.5161 92.0336 15.5433C92.1026 15.6128 92.1686 15.6857 92.2304 15.7615C92.337 15.8885 92.4333 16.0236 92.5176 16.1659C92.5824 16.2699 92.6864 16.437 92.8232 16.6522H92.2198L91.8554 16.1097C91.7745 15.9823 91.6854 15.86 91.5887 15.7441C91.5473 15.6976 91.4958 15.6622 91.4378 15.6401C91.3551 15.6179 91.2691 15.6081 91.1834 15.612H91.0794V16.6513L90.5753 16.6534ZM91.0803 15.2152H91.4502C91.6019 15.2225 91.754 15.2122 91.9032 15.185C91.9607 15.1666 92.0105 15.13 92.0451 15.081C92.0809 15.0252 92.0988 14.96 92.0962 14.8939C92.1009 14.8189 92.077 14.7448 92.0293 14.686C91.9794 14.6323 91.9117 14.5977 91.8388 14.5884C91.7979 14.5833 91.6752 14.5799 91.4711 14.5799L91.0773 14.5803L91.0803 15.2152Z" fill="white"/>
<path d="M91.5136 17.6352C91.2204 17.6356 90.9298 17.5785 90.6588 17.4664C90.3878 17.3544 90.1419 17.1899 89.9348 16.9828C89.8338 16.8818 89.7422 16.7714 89.6616 16.6534C89.3714 16.2247 89.2398 15.7086 89.2896 15.1934C89.3395 14.6786 89.5675 14.1971 89.9348 13.8319C90.0354 13.7305 90.1462 13.6393 90.2651 13.5596C90.6337 13.3099 91.0692 13.1765 91.5149 13.1765C91.9602 13.1765 92.3957 13.3099 92.7648 13.5596C92.8832 13.6393 92.994 13.7305 93.0946 13.8319C93.2987 14.0348 93.4615 14.2751 93.574 14.5397C93.7189 14.8811 93.7756 15.2535 93.7393 15.623C93.7031 15.992 93.5744 16.3461 93.3656 16.6534C93.2851 16.7714 93.1939 16.8818 93.0929 16.9828C92.8858 17.1903 92.6399 17.3548 92.3689 17.4669C92.0979 17.5789 91.8072 17.636 91.5136 17.6352ZM91.5136 13.3674C91.1092 13.3674 90.7142 13.4867 90.378 13.7109C90.0413 13.935 89.7797 14.2538 89.6246 14.6267C89.4699 14.9991 89.4294 15.4095 89.5082 15.8053C89.5871 16.2008 89.7818 16.5643 90.0677 16.8498C90.3537 17.1349 90.718 17.3292 91.1148 17.408C91.5115 17.4865 91.9227 17.4464 92.296 17.2917C92.6697 17.1374 92.9889 16.8762 93.2139 16.5404C93.4385 16.2051 93.5582 15.8109 93.5582 15.4073C93.5582 14.8661 93.3426 14.3475 92.9591 13.9649C92.5756 13.5826 92.0557 13.3674 91.5136 13.3674Z" fill="white"/>
<path d="M59.1332 27.7841H58.5009V22.8656H59.1332V24.9784C59.2313 24.8088 59.3757 24.6711 59.55 24.5812C59.7554 24.4704 59.9868 24.415 60.2207 24.4214C60.6976 24.4214 61.0679 24.5821 61.3308 24.9034C61.5899 25.2652 61.728 25.6994 61.7259 26.1439C61.7233 26.5883 61.5805 27.0209 61.3176 27.3797C61.1817 27.5424 61.0104 27.6716 60.8165 27.7568C60.6226 27.8424 60.4116 27.8821 60.1999 27.8723C59.7136 27.8723 59.3595 27.6843 59.1375 27.3081L59.1332 27.7841ZM60.7999 26.9829C60.9865 26.74 61.0807 26.4388 61.0653 26.1328C61.082 25.8307 60.9886 25.5332 60.8028 25.2942C60.7172 25.1919 60.6089 25.1109 60.4871 25.0568C60.3652 25.0027 60.2322 24.9775 60.0989 24.9822C59.9659 24.9788 59.8338 25.0048 59.7124 25.0589C59.5909 25.1126 59.4831 25.1932 59.3966 25.2942C59.2074 25.529 59.1107 25.8247 59.1247 26.1255C59.1107 26.4311 59.207 26.7315 59.3966 26.9714C59.4814 27.0754 59.5884 27.1585 59.7102 27.2143C59.8317 27.2706 59.9646 27.2978 60.0989 27.2944C60.2322 27.3 60.3648 27.2748 60.4867 27.2207C60.609 27.1666 60.7168 27.0852 60.802 26.9829H60.7999Z" fill="white"/>
<path d="M63.2237 29.1499L62.5214 29.1494L63.3392 27.4236L61.9299 24.5139H62.665L63.686 26.7699L64.667 24.5139H65.3544L63.2237 29.1499Z" fill="white"/>
<path d="M70.8115 24.0605L70.2123 24.2685C70.1753 24.0511 70.0675 23.8517 69.9064 23.7013C69.7129 23.5406 69.4709 23.4511 69.2194 23.4469C68.968 23.4422 68.7226 23.5236 68.524 23.6774C68.4396 23.7464 68.3723 23.8338 68.3263 23.9322C68.2802 24.0311 68.2572 24.1389 68.2585 24.2476C68.2538 24.4121 68.3105 24.5719 68.4179 24.6967C68.5398 24.8275 68.7008 24.9158 68.8773 24.9481L69.5991 25.1041C69.9516 25.165 70.2758 25.3351 70.526 25.5903C70.7429 25.826 70.8597 26.1362 70.852 26.4562C70.8528 26.6471 70.8115 26.8364 70.7318 27.0098C70.6521 27.1837 70.5354 27.3379 70.3896 27.4619C70.0807 27.7427 69.6788 27.8829 69.1845 27.8829C68.6433 27.8829 68.2197 27.741 67.9138 27.4577C67.6193 27.1973 67.4297 26.8393 67.3794 26.4498L68.0199 26.2419C68.0412 26.5197 68.1622 26.7805 68.3604 26.9765C68.4695 27.0788 68.5977 27.1581 68.7383 27.2092C68.8785 27.2608 69.0277 27.2829 69.1773 27.2748C69.4952 27.2748 69.7402 27.2024 69.9123 27.0575C69.995 26.9919 70.0611 26.9079 70.1062 26.8125C70.151 26.717 70.1731 26.6122 70.1706 26.5069C70.1736 26.3318 70.1075 26.1626 69.9873 26.0352C69.8416 25.8895 69.6537 25.7932 69.45 25.7599L68.7614 25.6099C68.4358 25.5507 68.1362 25.3922 67.9044 25.1561C67.6875 24.9217 67.5724 24.6111 67.5835 24.2923C67.5848 24.1018 67.6274 23.9139 67.7079 23.7409C67.7881 23.5683 67.9048 23.4145 68.0501 23.2905C68.3548 23.0054 68.7592 22.8507 69.1773 22.8592C69.672 22.8592 70.0513 22.9794 70.3146 23.2189C70.566 23.4392 70.7403 23.7341 70.8115 24.0605Z" fill="white"/>
<path d="M72.1321 29.0748H71.4989V24.516H72.1185V25.0261C72.2195 24.8484 72.3682 24.7022 72.5476 24.6042C72.7522 24.4926 72.9823 24.4367 73.2154 24.4419C73.6875 24.4419 74.0561 24.6029 74.3216 24.9242C74.5816 25.2822 74.7205 25.7134 74.7184 26.1558C74.7158 26.5981 74.5722 27.0281 74.308 27.383C74.1725 27.5441 74.0012 27.672 73.8081 27.7568C73.6151 27.8416 73.4054 27.8812 73.1945 27.8722C72.9721 27.8769 72.7522 27.8254 72.5549 27.7227C72.3827 27.6357 72.237 27.5045 72.1321 27.3426V29.0748ZM74.0664 26.1464C74.0779 25.8515 73.985 25.5617 73.8039 25.3286C73.7199 25.2234 73.6125 25.1394 73.4902 25.0832C73.3679 25.0274 73.2341 25.0005 73.0999 25.0052C72.9652 25.0014 72.8314 25.0282 72.7091 25.0845C72.5868 25.1403 72.479 25.2238 72.3946 25.3282C72.2097 25.56 72.1142 25.8502 72.1258 26.1464C72.1134 26.4464 72.2084 26.7413 72.3946 26.9778C72.479 27.0822 72.5868 27.1657 72.7091 27.2215C72.8314 27.2778 72.9652 27.3051 73.0999 27.3008C73.2337 27.3051 73.3667 27.2778 73.4885 27.222C73.61 27.1657 73.7169 27.0822 73.8009 26.9778C73.985 26.7404 74.0792 26.446 74.0664 26.1464Z" fill="white"/>
<path d="M75.738 24.9068C76.0581 24.591 76.4897 24.4142 76.9393 24.4142C77.3893 24.4142 77.821 24.591 78.141 24.9064C78.2983 25.0717 78.421 25.266 78.5024 25.4791C78.5838 25.6917 78.6221 25.9184 78.6149 26.1464C78.6225 26.3748 78.585 26.6024 78.5045 26.8163C78.4235 27.0302 78.3017 27.2263 78.1448 27.3933C77.8235 27.7091 77.3906 27.8859 76.9393 27.8859C76.4885 27.8859 76.0551 27.7091 75.7338 27.3933C75.5774 27.2263 75.4551 27.0302 75.3745 26.8163C75.294 26.6024 75.2565 26.3748 75.2642 26.1464C75.2569 25.9184 75.2953 25.6917 75.3762 25.4791C75.4576 25.266 75.5808 25.0717 75.738 24.9064V24.9068ZM76.214 27.0059C76.3078 27.104 76.4203 27.1819 76.5447 27.2352C76.6696 27.2885 76.8038 27.3157 76.9393 27.3157C77.0752 27.3157 77.2091 27.2885 77.3339 27.2352C77.4588 27.1819 77.5713 27.104 77.665 27.0059C77.8615 26.7984 77.9599 26.5116 77.9608 26.1469C77.9608 25.7851 77.8564 25.5004 77.665 25.2946C77.5713 25.1966 77.4588 25.119 77.3339 25.0657C77.2091 25.0125 77.0752 24.9848 76.9393 24.9848C76.8038 24.9848 76.6696 25.0125 76.5447 25.0657C76.4203 25.119 76.3078 25.1966 76.214 25.2946C76.0171 25.5025 75.9183 25.7851 75.9183 26.1469C75.9183 26.5082 76.0171 26.8005 76.214 27.0059Z" fill="white"/>
<path d="M80.2555 23.4831V24.5148H80.9637V25.0926H80.2555V26.7916C80.2444 26.8534 80.2491 26.9169 80.2683 26.9766C80.2875 27.0366 80.3211 27.0908 80.3659 27.1347C80.4106 27.1785 80.4656 27.2114 80.5257 27.2297C80.5862 27.2476 80.6497 27.251 80.7115 27.2395C80.7963 27.2408 80.8811 27.2314 80.9637 27.2126V27.756C80.8231 27.8016 80.6757 27.8224 80.5282 27.8173C80.4059 27.8237 80.284 27.8054 80.169 27.7632C80.0544 27.721 79.9495 27.6558 79.8605 27.5723C79.7752 27.4803 79.71 27.372 79.6678 27.254C79.6257 27.1364 79.6082 27.0111 79.6159 26.8862V25.0935H78.9907V24.516L79.168 24.5156C79.2375 24.5212 79.3069 24.5114 79.3721 24.4875C79.4373 24.4636 79.4965 24.4257 79.546 24.3767C79.6329 24.2761 79.6781 24.1466 79.6721 24.0141V23.4827H80.2555V23.4831Z" fill="white"/>
<path d="M81.8041 23.6024C81.761 23.5606 81.7274 23.5103 81.7044 23.4549C81.6818 23.3995 81.6707 23.3399 81.672 23.2802C81.6707 23.2197 81.6818 23.1596 81.7048 23.1038C81.7274 23.0475 81.761 22.9964 81.8041 22.9538C81.8458 22.9099 81.8961 22.8754 81.9519 22.8519C82.0073 22.8285 82.0674 22.8166 82.1279 22.8178C82.1889 22.817 82.249 22.8281 82.3052 22.8511C82.3615 22.8741 82.4122 22.9078 82.4552 22.9508C82.4995 22.9934 82.5345 23.0445 82.5575 23.1012C82.5809 23.1579 82.592 23.2188 82.5907 23.2802C82.5916 23.3403 82.5801 23.3999 82.5571 23.4553C82.5336 23.5112 82.4991 23.561 82.4552 23.6024C82.4122 23.6454 82.3615 23.6791 82.3052 23.7021C82.249 23.7247 82.1889 23.7362 82.1279 23.7353C82.0679 23.7362 82.0082 23.7251 81.9524 23.7021C81.8966 23.6795 81.8463 23.6454 81.8041 23.6024ZM82.448 27.784H81.8147V24.5156H82.448V27.784Z" fill="white"/>
<path d="M85.1851 25.0934H84.3955V27.7841H83.7354V25.0934H83.129V24.516L83.7354 24.5156V23.9659C83.7269 23.8155 83.7499 23.6646 83.8023 23.5231C83.8552 23.3816 83.9366 23.2525 84.0414 23.1439C84.1432 23.045 84.2634 22.9674 84.3959 22.9163C84.528 22.8647 84.6695 22.8405 84.8114 22.8447C85.0062 22.8447 85.1336 22.8677 85.1924 22.9133V23.4826C85.1025 23.4524 85.0079 23.4388 84.9133 23.4422C84.7807 23.4396 84.6516 23.4835 84.5489 23.567C84.4445 23.6514 84.3955 23.7954 84.3955 23.9991V24.519H85.1851V25.0934Z" fill="white"/>
<path d="M86.7921 29.1499L86.0903 29.1494L86.908 27.4236L85.4988 24.5139H86.2339L87.2549 26.7699L88.2359 24.5139H88.9232L86.7921 29.1499Z" fill="white"/>
<path d="M18.0192 6.23281C18.0192 6.23281 17.2381 5.8625 16.4276 6.10284C15.8216 6.28139 15.1568 6.74077 14.7788 7.69489C14.0497 9.52472 14.6808 12.7161 14.4341 12.7161C14.1874 12.7161 13.4101 9.77528 12.3707 6.71264C11.3314 3.65043 10.4322 0.469318 8.80952 0.725852C7.37003 0.952556 7.81705 4.5794 8.3804 7.97656C8.89091 11.0554 9.48153 13.9382 9.14403 13.9382C8.54105 13.9395 6.56207 5.42827 4.53409 5.75128C2.50611 6.07472 5.11832 15.4523 4.56946 15.4702C4.11818 15.4847 3.01236 9.76165 1.37088 10.0246C0.126989 10.224 1.23537 14.6763 1.28651 15.918C1.29886 16.2295 1.3956 16.8138 0.928125 16.8138H0V17.6793H1.5196C1.83196 17.6648 2.07912 17.5455 2.20398 17.2386C2.62585 16.1997 1.51747 11.7849 1.77699 11.753C1.95511 11.7312 2.33949 13.0749 2.87599 14.594C3.41207 16.1132 3.94986 17.6886 4.96832 17.6886C7.16506 17.6886 4.92443 9.07599 5.35994 9.07599C5.59006 9.07599 6.21818 10.8257 6.90895 12.7455C7.75355 15.0909 8.78352 17.692 10.0274 17.692C11.5116 17.692 11.028 14.332 10.569 11.1129C10.171 8.32685 9.7044 5.70866 9.95327 5.70866C10.5136 5.70909 12.629 17.6878 15.1696 17.6878C16.4425 17.6878 16.457 15.1834 16.457 12.4834C16.457 10.5866 16.2984 8.85866 17.4899 8.44318C18.0567 8.24545 18.6294 8.59574 18.6294 8.59574L18.0192 6.23281Z" fill="white"/>
</g>
<defs>
<clipPath id="clip0_36_301">
<rect width="93.75" height="30" fill="white"/>
</clipPath>
</defs>
</svg>
