<svg width="271" height="50" viewBox="0 0 271 50" fill="none" xmlns="http://www.w3.org/2000/svg">
<g clip-path="url(#clip0_102_160)">
<path fill-rule="evenodd" clip-rule="evenodd" d="M45.2272 40.4773C44.7869 41.5952 43.7709 43.1692 42.3301 44.2779C41.4982 44.9183 40.5051 45.5304 39.141 45.9343C37.6869 46.3651 35.8957 46.5107 33.6665 46.5107H13.2833C11.0542 46.5107 9.26307 46.3651 7.80876 45.9343C6.44463 45.5304 5.45169 44.9183 4.61968 44.2779C3.17905 43.169 2.16288 41.5952 1.72258 40.4773C0.83566 38.2249 0.82666 35.6694 0.82666 34.0599V13.6858C0.82666 12.0763 0.83566 9.52074 1.72258 7.26838C2.16288 6.15048 3.17887 4.57646 4.61968 3.46773C5.45151 2.82736 6.44463 2.21524 7.80876 1.8113C9.26289 1.38055 11.054 1.23499 13.2833 1.23499H33.6667C35.8958 1.23499 37.6869 1.38055 39.1412 1.8113C40.5053 2.21524 41.4982 2.82754 42.3303 3.46773C43.7709 4.57664 44.7871 6.15048 45.2274 7.26838C46.1143 9.52074 46.1233 12.0763 46.1233 13.6858V34.0599C46.1231 35.6692 46.1141 38.2247 45.2272 40.4773Z" fill="url(#paint0_linear_102_160)"/>
<path d="M26.7599 27.2585C26.0802 26.5417 24.8864 26.0821 23.4771 26.0821C22.0676 26.0821 20.8737 26.5417 20.194 27.2585C19.8394 27.6326 19.6518 28.016 19.5928 28.5623C19.4783 29.6201 19.5425 30.5309 19.6666 31.9871C19.7847 33.3747 20.009 35.2251 20.3017 37.1097C20.5099 38.4509 20.6791 39.1747 20.8332 39.6931C21.0831 40.5332 22.0168 41.2678 23.4771 41.2678C24.9371 41.2678 25.8708 40.533 26.1207 39.6931C26.2748 39.1747 26.444 38.4509 26.6523 37.1097C26.945 35.2251 27.1693 33.3747 27.2874 31.9871C27.4114 30.5307 27.4756 29.6199 27.3612 28.5623C27.3021 28.0162 27.1145 27.6326 26.7599 27.2585ZM19.7735 20.8759C19.7735 22.9222 21.4332 24.5812 23.4805 24.5812C25.5279 24.5812 27.1876 22.9222 27.1876 20.8759C27.1876 18.8294 25.5279 17.1704 23.4805 17.1704C21.4332 17.1704 19.7735 18.8294 19.7735 20.8759ZM23.4346 6.253C14.7647 6.27765 7.66054 13.308 7.55325 21.9734C7.46612 28.993 11.9491 34.9976 18.209 37.1985C18.361 37.252 18.5152 37.1259 18.4913 36.9666C18.4092 36.4216 18.3318 35.8739 18.2607 35.3354C18.2355 35.145 18.1142 34.9809 17.9383 34.9041C12.9905 32.7435 9.53553 27.7835 9.59098 22.0382C9.6637 14.4984 15.8233 8.35169 23.3665 8.2907C31.078 8.22844 37.3714 14.4806 37.3714 22.1744C37.3714 27.8622 33.9316 32.7613 29.0223 34.9046C28.8464 34.9814 28.7258 35.1461 28.7008 35.3363C28.6297 35.8746 28.5523 36.4221 28.4704 36.9666C28.4463 37.1259 28.6005 37.252 28.7525 37.1987C34.9526 35.0189 39.4095 29.1076 39.4095 22.1746C39.4091 13.3798 32.2387 6.22781 23.4346 6.253ZM23.1467 13.5572C28.0616 13.3671 32.1205 17.3082 32.1205 22.1793C32.1205 24.6565 31.0705 26.8931 29.3922 28.4682C29.2498 28.6017 29.1733 28.7913 29.1843 28.9862C29.2178 29.5787 29.2056 30.1545 29.1661 30.8047C29.1555 30.978 29.3499 31.0887 29.4934 30.991C32.3077 29.0686 34.1587 25.8362 34.1587 22.1793C34.1587 16.1581 29.1411 11.2862 23.0659 11.5215C17.42 11.7403 12.8904 16.3931 12.818 22.0404C12.7705 25.7545 14.6329 29.0449 17.4834 30.9913C17.6265 31.089 17.8204 30.9782 17.8098 30.8051C17.7702 30.1545 17.7581 29.5787 17.7914 28.9862C17.8024 28.7915 17.7261 28.6019 17.584 28.4685C15.8534 26.8445 14.7906 24.5171 14.8583 21.9477C14.9775 17.4261 18.6247 13.7323 23.1467 13.5572Z" fill="white"/>
<path d="M70.5023 37.9477H61.9817L59.9355 43.9869H56.3264L64.397 21.6416H68.1467L76.2173 43.9869H72.5467L70.5023 37.9477ZM62.8641 35.1608H69.6181L66.2886 25.3579H66.1954L62.8641 35.1608Z" fill="white"/>
<path d="M93.6471 35.8426C93.6471 40.9049 90.9363 44.1573 86.8457 44.1573C84.5236 44.1573 82.6793 43.1189 81.7179 41.3072H81.6405V49.376H78.2952V27.6966H81.5332V30.4062H81.5948C82.5247 28.6578 84.5077 27.5262 86.7841 27.5262C90.9204 27.5262 93.6471 30.7945 93.6471 35.8426ZM90.2085 35.8426C90.2085 32.5445 88.5032 30.3761 85.9015 30.3761C83.3456 30.3761 81.6263 32.5902 81.6263 35.8426C81.6263 39.1249 83.3456 41.3231 85.9015 41.3231C88.5034 41.3231 90.2085 39.1707 90.2085 35.8426Z" fill="white"/>
<path d="M111.585 35.8426C111.585 40.9049 108.874 44.1573 104.783 44.1573C102.461 44.1573 100.617 43.1189 99.6556 41.3072H99.5782V49.376H96.2329V27.6966H99.471V30.4062H99.5325C100.462 28.6578 102.445 27.5262 104.722 27.5262C108.858 27.5262 111.585 30.7945 111.585 35.8426ZM108.146 35.8426C108.146 32.5445 106.441 30.3761 103.839 30.3761C101.283 30.3761 99.5642 32.5902 99.5642 35.8426C99.5642 39.1249 101.283 41.3231 103.839 41.3231C106.441 41.3231 108.146 39.1707 108.146 35.8426Z" fill="white"/>
<path d="M114.294 21.6416H117.641V43.9869H114.294V21.6416Z" fill="white"/>
<path d="M135.058 39.2022C134.608 42.1595 131.727 44.1889 128.041 44.1889C123.3 44.1889 120.357 41.0139 120.357 35.9199C120.357 30.8103 123.316 27.4963 127.9 27.4963C132.409 27.4963 135.245 30.5924 135.245 35.5316V36.6772H123.734V36.8793C123.734 39.6661 125.485 41.4936 128.118 41.4936C129.976 41.4936 131.434 40.6116 131.882 39.2024H135.058V39.2022ZM123.75 34.3403H131.898C131.82 31.847 130.224 30.2057 127.9 30.2057C125.592 30.2057 123.92 31.8785 123.75 34.3403Z" fill="white"/>
<path d="M153.063 21.6416C157.4 21.6416 160.422 24.6304 160.422 28.9829C160.422 33.3494 157.338 36.3523 152.954 36.3523H148.151V43.9871H144.681V21.6416H153.063ZM148.151 33.4425H152.133C155.153 33.4425 156.872 31.8154 156.872 28.9987C156.872 26.1803 155.153 24.5682 152.149 24.5682H148.151V33.4425Z" fill="white"/>
<path d="M161.644 35.8426C161.644 30.7171 164.664 27.4962 169.373 27.4962C174.098 27.4962 177.104 30.717 177.104 35.8426C177.104 40.9821 174.114 44.189 169.373 44.189C164.634 44.189 161.644 40.9823 161.644 35.8426ZM173.696 35.8426C173.696 32.3266 172.084 30.2515 169.373 30.2515C166.662 30.2515 165.05 32.3424 165.05 35.8426C165.05 39.3726 166.662 41.4319 169.373 41.4319C172.084 41.4319 173.696 39.3728 173.696 35.8426Z" fill="white"/>
<path d="M179.453 35.8426C179.453 30.8101 182.225 27.5261 186.269 27.5261C188.608 27.5261 190.452 28.6102 191.38 30.406H191.444V21.6415H194.805V43.9867H191.551V41.2158H191.49C190.53 43.0731 188.67 44.1573 186.3 44.1573C182.225 44.1573 179.453 40.875 179.453 35.8426ZM182.876 35.8426C182.876 39.1864 184.581 41.3231 187.183 41.3231C189.754 41.3231 191.474 39.1547 191.474 35.8426C191.474 32.5585 189.754 30.3762 187.183 30.3762C184.581 30.3763 182.876 32.5287 182.876 35.8426Z" fill="white"/>
<path d="M209.041 33.3018C208.747 31.5833 207.399 30.2989 205.2 30.2989C202.628 30.2989 200.923 32.4514 200.923 35.8427C200.923 39.3112 202.644 41.4006 205.229 41.4006C207.306 41.4006 208.67 40.3638 209.041 38.4749H212.263C211.892 41.8961 209.15 44.1891 205.2 44.1891C200.552 44.1891 197.516 41.0141 197.516 35.8427C197.516 30.7786 200.552 27.4963 205.168 27.4963C209.35 27.4963 211.953 30.1285 212.233 33.3019H209.041V33.3018Z" fill="white"/>
<path d="M214.313 39.357C214.313 36.5087 216.496 34.7884 220.369 34.5565L224.83 34.3087V33.0699C224.83 31.2584 223.639 30.2356 221.61 30.2356C219.75 30.2356 218.449 31.1195 218.186 32.5287H215.056C215.15 29.5856 217.89 27.4962 221.701 27.4962C225.59 27.4962 228.162 29.617 228.162 32.8221V43.9869H224.955V41.3073H224.878C223.932 43.1188 221.872 44.2662 219.734 44.2662C216.544 44.2664 214.313 42.2843 214.313 39.357ZM224.83 37.8862V36.6316L220.819 36.8794C218.82 37.0041 217.69 37.8704 217.69 39.2638C217.69 40.6888 218.868 41.6184 220.664 41.6184C223.004 41.6184 224.83 40.0071 224.83 37.8862Z" fill="white"/>
<path d="M237.5 27.5122C241.111 27.5122 243.696 29.5083 243.774 32.3883H240.629C240.49 30.9492 239.267 30.0672 237.407 30.0672C235.594 30.0672 234.387 30.9019 234.387 32.1722C234.387 33.1474 235.192 33.7975 236.881 34.2157L239.623 34.8517C242.907 35.6407 244.146 36.8479 244.146 39.2339C244.146 42.1754 241.358 44.189 237.377 44.189C233.534 44.189 230.948 42.2209 230.7 39.2479H234.014C234.248 40.8117 235.501 41.6482 237.531 41.6482C239.53 41.6482 240.785 40.8275 240.785 39.5274C240.785 38.5205 240.165 37.9792 238.461 37.5453L235.548 36.8336C232.604 36.1202 231.117 34.618 231.117 32.3582C231.117 29.4783 233.704 27.5122 237.5 27.5122Z" fill="white"/>
<path d="M251.415 23.8406V27.6966H254.515V30.3447H251.415V39.3253C251.415 40.7205 252.036 41.3706 253.398 41.3706C253.74 41.3706 254.283 41.3231 254.499 41.2932V43.9254C254.128 44.0186 253.384 44.08 252.641 44.08C249.341 44.08 248.054 42.8411 248.054 39.6819V30.3445H245.685V27.6966H248.054V23.8406H251.415Z" fill="white"/>
<path d="M263.51 27.5122C267.121 27.5122 269.707 29.5083 269.784 32.3883H266.639C266.5 30.9492 265.277 30.0672 263.417 30.0672C261.605 30.0672 260.397 30.9019 260.397 32.1722C260.397 33.1474 261.202 33.7975 262.891 34.2157L265.634 34.8517C268.917 35.6407 270.157 36.8479 270.157 39.2339C270.157 42.1754 267.369 44.189 263.387 44.189C259.544 44.189 256.958 42.2209 256.71 39.2479H260.024C260.258 40.8117 261.511 41.6482 263.542 41.6482C265.541 41.6482 266.796 40.8275 266.796 39.5274C266.796 38.5205 266.175 37.9792 264.472 37.5453L261.559 36.8336C258.614 36.1202 257.127 34.618 257.127 32.3582C257.127 29.4783 259.715 27.5122 263.51 27.5122Z" fill="white"/>
<path d="M64.6248 14.2669H57.9253V3.53088H59.5927V12.7337H64.6248V14.2669Z" fill="white"/>
<path d="M66.563 3.7691C66.563 3.21042 67.0024 2.78687 67.5975 2.78687C68.1935 2.78687 68.632 3.21042 68.632 3.7691C68.632 4.31915 68.1934 4.74342 67.5975 4.74342C67.0024 4.74342 66.563 4.31897 66.563 3.7691ZM66.8011 6.16486H68.3939V14.2669H66.8011V6.16486Z" fill="white"/>
<path d="M73.9365 6.00854C75.7604 6.00854 76.9514 6.85637 77.1069 8.28483H75.5739C75.4245 7.68999 74.8443 7.31052 73.9364 7.31052C73.0424 7.31052 72.3656 7.73407 72.3656 8.36652C72.3656 8.85053 72.7751 9.15551 73.6532 9.35668L75.0006 9.66849C76.5415 10.026 77.263 10.6885 77.263 11.8789C77.263 13.4042 75.8416 14.4233 73.9063 14.4233C71.9778 14.4233 70.7201 13.5526 70.5786 12.1172H72.1793C72.3805 12.7419 72.9756 13.1284 73.9434 13.1284C74.941 13.1284 75.6486 12.6821 75.6486 12.0346C75.6486 11.5513 75.269 11.2386 74.4568 11.0453L73.0426 10.7177C71.5017 10.3531 70.7872 9.66166 70.7872 8.45631C70.7872 7.01975 72.1047 6.00854 73.9365 6.00854Z" fill="white"/>
<path d="M81.5245 4.14771V6.20178H83.2807V7.54855H81.5245V11.7146C81.5245 12.5634 81.8743 12.9349 82.6706 12.9349C82.9158 12.9349 83.0573 12.92 83.2807 12.898V14.2299C83.0206 14.2738 82.7225 14.3116 82.4096 14.3116C80.6306 14.3116 79.9238 13.686 79.9238 12.124V7.54837H78.6362V6.2016H79.9238V4.14771H81.5245Z" fill="white"/>
<path d="M92.1583 12.0794C91.7936 13.5307 90.4979 14.4233 88.645 14.4233C86.322 14.4233 84.9006 12.8313 84.9006 10.2414C84.9006 7.6522 86.3519 6.00854 88.6371 6.00854C90.8925 6.00854 92.255 7.54874 92.255 10.0929V10.6509H86.5303V10.7405C86.583 12.1612 87.4093 13.0616 88.689 13.0616C89.6567 13.0616 90.3195 12.712 90.6174 12.0794H92.1583ZM86.5305 9.46823H90.6246C90.5877 8.19613 89.8133 7.36935 88.6303 7.36935C87.4464 7.36935 86.6201 8.20315 86.5305 9.46823Z" fill="white"/>
<path d="M94.4014 6.1649H95.9423V7.45194H96.0618C96.4557 6.55139 97.2598 6.00854 98.4808 6.00854C100.29 6.00854 101.287 7.09442 101.287 9.02201V14.267H99.6867V9.42343C99.6867 8.12146 99.1205 7.47389 97.9375 7.47389C96.7536 7.47389 96.002 8.26288 96.002 9.52707V14.267H94.4014V6.1649Z" fill="white"/>
<path d="M107.756 10.2124C107.756 7.60038 109.215 6.00854 111.582 6.00854C113.942 6.00854 115.401 7.60056 115.401 10.2124C115.401 12.8385 113.949 14.4233 111.582 14.4233C109.207 14.4233 107.756 12.8385 107.756 10.2124ZM113.756 10.2124C113.756 8.45613 112.967 7.42909 111.582 7.42909C110.19 7.42909 109.409 8.45613 109.409 10.2124C109.409 11.9827 110.19 13.0019 111.582 13.0019C112.967 13.0019 113.756 11.9757 113.756 10.2124Z" fill="white"/>
<path d="M117.547 6.1649H119.088V7.45194H119.208C119.602 6.55139 120.406 6.00854 121.627 6.00854C123.435 6.00854 124.433 7.09442 124.433 9.02201V14.267H122.832V9.42343C122.832 8.12146 122.266 7.47389 121.083 7.47389C119.899 7.47389 119.148 8.26288 119.148 9.52707V14.267H117.547V6.1649Z" fill="white"/>
</g>
<defs>
<linearGradient id="paint0_linear_102_160" x1="23.475" y1="1.23499" x2="23.475" y2="46.5107" gradientUnits="userSpaceOnUse">
<stop stop-color="#F452FF"/>
<stop offset="1" stop-color="#832BC1"/>
</linearGradient>
<clipPath id="clip0_102_160">
<rect width="269.718" height="49.2958" fill="white" transform="translate(0.816895 0.704224)"/>
</clipPath>
</defs>
</svg>
