<svg width="252" height="50" viewBox="0 0 252 50" fill="none" xmlns="http://www.w3.org/2000/svg">
<g clip-path="url(#clip0_102_193)">
<path d="M5.65912 20.9874C4.09611 20.9874 2.8313 22.2506 2.8313 23.8117V26.8927C2.8313 28.4537 4.09611 29.7169 5.65912 29.7169C7.22214 29.7169 8.48695 28.4537 8.48695 26.8927V23.8117C8.48695 22.2506 7.22214 20.9874 5.65912 20.9874Z" fill="#0066D9"/>
<path d="M45.2487 20.9874C43.6857 20.9874 42.4209 22.2506 42.4209 23.8117V26.8927C42.4209 28.4537 43.6857 29.7169 45.2487 29.7169C46.8117 29.7169 48.0765 28.4537 48.0765 26.8927V23.8117C48.0765 22.2506 46.8117 20.9874 45.2487 20.9874Z" fill="#4285F4"/>
<path d="M15.4279 30.2303C13.8649 30.2303 12.6001 31.4936 12.6001 33.0546V36.1356C12.6001 37.6966 13.8649 38.9598 15.4279 38.9598C16.9909 38.9598 18.2557 37.6966 18.2557 36.1356V33.0546C18.2557 31.4936 16.9909 30.2303 15.4279 30.2303Z" fill="#EA4335"/>
<path d="M15.4279 11.7444C13.8649 11.7444 12.6001 13.0076 12.6001 14.5686V24.646H12.6027C12.6387 26.1762 13.888 27.4061 15.4279 27.4061C16.9678 27.4061 18.2172 26.1762 18.2532 24.646H18.2557V14.5686C18.2557 13.0076 16.9909 11.7444 15.4279 11.7444Z" fill="#EA4335"/>
<path d="M35.4797 11.7444C33.9167 11.7444 32.6519 13.0076 32.6519 14.5686V17.6496C32.6519 19.2106 33.9167 20.4738 35.4797 20.4738C37.0427 20.4738 38.3075 19.2106 38.3075 17.6496V14.5686C38.3075 13.0076 37.0427 11.7444 35.4797 11.7444Z" fill="#34A853"/>
<path d="M25.4538 2.75818C23.8908 2.75818 22.626 4.02138 22.626 5.58242V8.6634C22.626 10.2244 23.8908 11.4876 25.4538 11.4876C27.0168 11.4876 28.2816 10.2244 28.2816 8.6634V5.58242C28.2816 4.02138 27.0168 2.75818 25.4538 2.75818Z" fill="#FAB908"/>
<path d="M25.4538 39.2166C23.8908 39.2166 22.626 40.4798 22.626 42.0408V45.1218C22.626 46.6828 23.8908 47.946 25.4538 47.946C27.0168 47.946 28.2816 46.6828 28.2816 45.1218V42.0408C28.2816 40.4798 27.0168 39.2166 25.4538 39.2166Z" fill="#FAB908"/>
<path d="M35.4797 23.2981C33.9167 23.2981 32.6519 24.5613 32.6519 26.1223V36.1355C32.6519 37.6966 33.9167 38.9598 35.4797 38.9598C37.0427 38.9598 38.3075 37.6966 38.3075 36.1355V26.1223C38.3075 24.5613 37.0427 23.2981 35.4797 23.2981Z" fill="#34A853"/>
<path d="M28.2816 17.1361C28.2816 15.5751 27.0168 14.3119 25.4538 14.3119C23.8908 14.3119 22.626 15.5751 22.626 17.1361V23.9836V26.7231V33.568C22.626 35.1291 23.8908 36.3923 25.4538 36.3923C27.0168 36.3923 28.2816 35.1291 28.2816 33.568V26.7206V23.9836V17.1361Z" fill="#FAB908"/>
<path d="M153.135 42.8064V35.3426H157.153C158.177 35.3426 159.124 35.1126 159.994 34.6525C160.864 34.1924 161.559 33.5491 162.08 32.7227C162.6 31.8962 162.86 30.9632 162.86 29.9238C162.86 28.8843 162.6 27.9513 162.08 27.1249C161.559 26.2984 160.864 25.6551 159.994 25.195C159.124 24.7349 158.177 24.5049 157.153 24.5049H150.985V42.8064H153.135ZM157.204 33.2722H153.135V26.5753H157.204C157.887 26.5753 158.488 26.7372 159.008 27.061C159.529 27.3847 159.934 27.8022 160.224 28.3134C160.514 28.8247 160.659 29.3614 160.659 29.9238C160.659 30.4861 160.514 31.0229 160.224 31.5341C159.934 32.0453 159.529 32.4628 159.008 32.7866C158.488 33.1103 157.887 33.2722 157.204 33.2722ZM170.052 43.2154C171.331 43.2154 172.483 42.9086 173.507 42.2952C174.531 41.6817 175.328 40.8467 175.9 39.7902C176.471 38.7337 176.757 37.5664 176.757 36.2884C176.757 35.0104 176.471 33.8431 175.9 32.7866C175.328 31.7301 174.531 30.8951 173.507 30.2816C172.483 29.6682 171.331 29.3614 170.052 29.3614C168.772 29.3614 167.62 29.6682 166.597 30.2816C165.573 30.8951 164.775 31.7301 164.204 32.7866C163.632 33.8431 163.346 35.0104 163.346 36.2884C163.346 37.5664 163.632 38.7337 164.204 39.7902C164.775 40.8467 165.573 41.6817 166.597 42.2952C167.62 42.9086 168.772 43.2154 170.052 43.2154ZM170.052 41.2472C169.25 41.2472 168.499 41.047 167.8 40.6465C167.1 40.2461 166.541 39.6709 166.123 38.9212C165.705 38.1714 165.496 37.2938 165.496 36.2884C165.496 35.283 165.705 34.4054 166.123 33.6556C166.541 32.9059 167.1 32.3307 167.8 31.9303C168.499 31.5298 169.25 31.3296 170.052 31.3296C170.854 31.3296 171.6 31.5298 172.291 31.9303C172.982 32.3307 173.537 32.9059 173.955 33.6556C174.373 34.4054 174.582 35.283 174.582 36.2884C174.582 37.2938 174.373 38.1714 173.955 38.9212C173.537 39.6709 172.982 40.2461 172.291 40.6465C171.6 41.047 170.854 41.2472 170.052 41.2472ZM184.461 43.2154C185.467 43.2154 186.363 42.9896 187.148 42.538C187.933 42.0864 188.53 41.5369 188.94 40.8893H189.042V42.8064H191.115V24.5049H188.94V29.8982L189.042 31.713H188.94C188.53 31.0484 187.933 30.4904 187.148 30.0388C186.363 29.5872 185.467 29.3614 184.461 29.3614C183.301 29.3614 182.247 29.6596 181.3 30.2561C180.353 30.8525 179.607 31.6789 179.061 32.7354C178.515 33.792 178.242 34.9763 178.242 36.2884C178.242 37.6176 178.515 38.8061 179.061 39.8541C179.607 40.9021 180.353 41.7243 181.3 42.3207C182.247 42.9172 183.301 43.2154 184.461 43.2154ZM184.717 41.2472C183.966 41.2472 183.258 41.0427 182.593 40.6337C181.927 40.2248 181.394 39.6411 180.993 38.8828C180.592 38.1245 180.391 37.2597 180.391 36.2884C180.391 35.3171 180.592 34.4523 180.993 33.694C181.394 32.9357 181.927 32.352 182.593 31.9431C183.258 31.5341 183.966 31.3296 184.717 31.3296C185.485 31.3296 186.197 31.5341 186.854 31.9431C187.511 32.352 188.04 32.9314 188.441 33.6812C188.842 34.431 189.042 35.3 189.042 36.2884C189.042 37.2767 188.842 38.1458 188.441 38.8956C188.04 39.6454 187.511 40.2248 186.854 40.6337C186.197 41.0427 185.485 41.2472 184.717 41.2472ZM199.766 43.2154C201.165 43.2154 202.355 42.8831 203.336 42.2185C204.317 41.5539 205.029 40.6848 205.473 39.6113L203.528 38.7934C203.204 39.5772 202.709 40.1822 202.043 40.6082C201.378 41.0342 200.585 41.2472 199.663 41.2472C198.895 41.2472 198.179 41.0384 197.513 40.6209C196.848 40.2035 196.315 39.6198 195.914 38.87C195.513 38.1203 195.312 37.2597 195.312 36.2884C195.312 35.3171 195.513 34.4565 195.914 33.7068C196.315 32.957 196.848 32.3733 197.513 31.9558C198.179 31.5384 198.895 31.3296 199.663 31.3296C200.567 31.3296 201.34 31.5384 201.979 31.9558C202.619 32.3733 203.101 32.9825 203.425 33.7834L205.396 32.9655C204.987 31.8749 204.3 31.0016 203.336 30.3455C202.372 29.6895 201.182 29.3614 199.766 29.3614C198.503 29.3614 197.368 29.6596 196.362 30.2561C195.355 30.8525 194.57 31.6789 194.007 32.7354C193.444 33.792 193.162 34.9763 193.162 36.2884C193.162 37.6005 193.444 38.7806 194.007 39.8286C194.57 40.8766 195.355 41.703 196.362 42.308C197.368 42.9129 198.503 43.2154 199.766 43.2154ZM211.513 43.2154C212.451 43.2154 213.296 42.9938 214.047 42.5508C214.797 42.1077 215.36 41.571 215.736 40.9405H215.838V42.8064H217.911V34.5503C217.911 32.9485 217.404 31.6832 216.388 30.7545C215.373 29.8258 213.978 29.3614 212.204 29.3614C211.112 29.3614 210.118 29.583 209.222 30.026C208.326 30.4691 207.623 31.0825 207.111 31.8664L208.749 33.0933C209.107 32.531 209.593 32.0922 210.208 31.7769C210.822 31.4617 211.496 31.304 212.229 31.304C213.27 31.304 214.132 31.598 214.814 32.1859C215.497 32.7738 215.838 33.5534 215.838 34.5247V35.3171C215.48 35.0956 214.964 34.8996 214.29 34.7292C213.616 34.5588 212.886 34.4736 212.101 34.4736C210.515 34.4736 209.201 34.8613 208.16 35.6366C207.119 36.4119 206.599 37.4898 206.599 38.87C206.599 39.705 206.804 40.4505 207.213 41.1066C207.623 41.7627 208.203 42.2781 208.954 42.653C209.704 43.0279 210.557 43.2154 211.513 43.2154ZM211.718 41.2983C210.882 41.2983 210.191 41.0768 209.645 40.6337C209.099 40.1907 208.826 39.6113 208.826 38.8956C208.826 38.1117 209.128 37.4727 209.734 36.9785C210.34 36.4844 211.24 36.2373 212.434 36.2373C213.1 36.2373 213.731 36.3225 214.328 36.4929C214.925 36.6633 215.429 36.8848 215.838 37.1575C215.838 37.9072 215.65 38.5974 215.275 39.2279C214.9 39.8584 214.396 40.3611 213.765 40.736C213.134 41.1109 212.451 41.2983 211.718 41.2983ZM225 43.2154C225.956 43.2154 226.826 43.0535 227.611 42.7297C228.396 42.4059 229.019 41.9416 229.479 41.3366C229.94 40.7317 230.17 40.0288 230.17 39.2279C230.17 38.3077 229.846 37.5281 229.198 36.8891C228.549 36.2501 227.585 35.7687 226.306 35.4449L224.412 34.9592C223.661 34.7718 223.098 34.529 222.723 34.2308C222.347 33.9325 222.16 33.5449 222.16 33.0677C222.16 32.5565 222.428 32.1348 222.966 31.8025C223.503 31.4702 224.13 31.304 224.847 31.304C226.331 31.304 227.364 31.8834 227.944 33.0422L229.838 32.1731C229.462 31.287 228.827 30.5969 227.931 30.1027C227.035 29.6085 226.016 29.3614 224.873 29.3614C224.002 29.3614 223.192 29.5148 222.441 29.8215C221.69 30.1283 221.089 30.567 220.637 31.1379C220.185 31.7088 219.959 32.3691 219.959 33.1189C219.959 34.0902 220.291 34.8826 220.957 35.496C221.622 36.1095 222.475 36.544 223.516 36.7996L225.103 37.2086C226.092 37.4472 226.818 37.7326 227.278 38.0649C227.739 38.3972 227.969 38.836 227.969 39.3813C227.969 39.9947 227.679 40.4676 227.099 40.7999C226.519 41.1322 225.819 41.2983 225 41.2983C224.233 41.2983 223.529 41.0853 222.889 40.6593C222.249 40.2333 221.767 39.6283 221.443 38.8445L219.498 39.7135C219.89 40.736 220.556 41.5752 221.494 42.2313C222.433 42.8873 223.601 43.2154 225 43.2154ZM237.08 43.0109C237.49 43.0109 237.827 42.9853 238.091 42.9342C238.356 42.8831 238.616 42.7979 238.872 42.6786V40.557C238.411 40.8467 237.934 40.9916 237.439 40.9916C236.825 40.9916 236.355 40.8041 236.031 40.4292C235.758 40.0884 235.622 39.5602 235.622 38.8445V31.7386H238.795V29.7704H235.622V26.0897H233.446V29.7704H231.168V31.7386H233.446V39.3813C233.446 39.9947 233.532 40.5144 233.702 40.9405C233.873 41.3665 234.129 41.7414 234.47 42.0651C234.777 42.3548 235.157 42.5849 235.609 42.7553C236.061 42.9257 236.552 43.0109 237.08 43.0109ZM245.885 43.2154C246.84 43.2154 247.71 43.0535 248.495 42.7297C249.28 42.4059 249.903 41.9416 250.363 41.3366C250.824 40.7317 251.054 40.0288 251.054 39.2279C251.054 38.3077 250.73 37.5281 250.082 36.8891C249.433 36.2501 248.469 35.7687 247.19 35.4449L245.296 34.9592C244.545 34.7718 243.982 34.529 243.607 34.2308C243.231 33.9325 243.044 33.5449 243.044 33.0677C243.044 32.5565 243.312 32.1348 243.85 31.8025C244.387 31.4702 245.014 31.304 245.731 31.304C247.215 31.304 248.248 31.8834 248.828 33.0422L250.722 32.1731C250.346 31.287 249.711 30.5969 248.815 30.1027C247.919 29.6085 246.9 29.3614 245.757 29.3614C244.886 29.3614 244.076 29.5148 243.325 29.8215C242.574 30.1283 241.973 30.567 241.521 31.1379C241.069 31.7088 240.843 32.3691 240.843 33.1189C240.843 34.0902 241.175 34.8826 241.841 35.496C242.506 36.1095 243.359 36.544 244.4 36.7996L245.987 37.2086C246.977 37.4472 247.702 37.7326 248.162 38.0649C248.623 38.3972 248.853 38.836 248.853 39.3813C248.853 39.9947 248.563 40.4676 247.983 40.7999C247.403 41.1322 246.704 41.2983 245.885 41.2983C245.117 41.2983 244.413 41.0853 243.773 40.6593C243.133 40.2333 242.651 39.6283 242.327 38.8445L240.382 39.7135C240.774 40.736 241.44 41.5752 242.378 42.2313C243.317 42.8873 244.485 43.2154 245.885 43.2154Z" fill="white"/>
<path d="M118.908 29.5757C120.521 29.5757 121.794 30.2914 122.451 31.0866H122.551V29.9932H125.378V42.0607C125.378 47.0308 122.451 49.0587 118.988 49.0587C115.723 49.0587 113.753 46.8718 113.016 45.0825L115.584 44.009C116.042 45.1024 117.156 46.3947 118.968 46.3947C121.177 46.3947 122.551 45.0229 122.551 42.4583V41.4841H122.451C121.794 42.2993 120.521 43.015 118.908 43.015C115.544 43.015 112.459 40.0726 112.459 36.3152C112.459 32.518 115.544 29.5757 118.908 29.5757ZM89.7461 29.7745C93.4685 29.7745 96.4941 32.5975 96.4941 36.4941C96.4941 40.3708 93.4685 43.2138 89.7461 43.2138C86.0237 43.2138 82.998 40.3708 82.998 36.4941C82.998 32.5975 86.0237 29.7745 89.7461 29.7745ZM104.476 29.7745C108.199 29.7745 111.224 32.5975 111.224 36.4941C111.224 40.3708 108.199 43.2138 104.476 43.2138C100.754 43.2138 97.7283 40.3708 97.7283 36.4941C97.7283 32.5975 100.754 29.7745 104.476 29.7745ZM138.117 29.7745C141.601 29.7745 143.313 32.5379 143.87 34.0488L144.169 34.8043L135.171 38.5219C135.868 39.8539 136.923 40.5498 138.436 40.5498C139.949 40.5498 140.984 39.8142 141.76 38.7009L144.049 40.2317C143.293 41.3251 141.521 43.2138 138.436 43.2138C134.614 43.2138 131.767 40.2516 131.767 36.4941C131.767 32.4981 134.654 29.7745 138.117 29.7745ZM72.3085 22.2198C75.4935 22.2198 77.7627 23.4723 79.4746 25.1025L77.4443 27.1105C76.23 25.9574 74.5778 25.0628 72.3085 25.0628C68.1084 25.0628 64.8239 28.4425 64.8239 32.6373C64.8239 36.8321 68.1084 40.2118 72.3085 40.2118C75.0356 40.2118 76.5883 39.1184 77.5836 38.1243C78.3997 37.3092 78.9372 36.1363 79.1362 34.5458H72.3085V31.7029H81.9231C82.0226 32.2198 82.0823 32.8162 82.0823 33.4921C82.0823 35.6393 81.505 38.2834 79.614 40.1521C77.7627 42.0607 75.4139 43.0746 72.3085 43.0746C66.5359 43.0746 61.6987 38.4027 61.6987 32.6572C61.6987 26.8918 66.5359 22.2198 72.3085 22.2198ZM130.334 23.0151V42.7565H127.388V23.0151H130.334ZM89.7461 32.3987C87.6958 32.3987 85.944 34.0488 85.944 36.4742C85.944 38.8798 87.7157 40.5498 89.7461 40.5498C91.7765 40.5498 93.5481 38.8798 93.5481 36.4742C93.5481 34.0488 91.7765 32.3987 89.7461 32.3987ZM104.476 32.3987C102.426 32.3987 100.674 34.0488 100.674 36.4742C100.674 38.8798 102.446 40.5498 104.476 40.5498C106.507 40.5498 108.278 38.8798 108.278 36.4742C108.278 34.0488 106.527 32.3987 104.476 32.3987ZM119.167 32.2198C117.137 32.2198 115.425 33.9494 115.425 36.3152C115.425 38.6611 117.137 40.3708 119.167 40.3708C121.177 40.3708 122.77 38.681 122.75 36.3152C122.75 33.9494 121.177 32.2198 119.167 32.2198ZM138.217 32.359C136.704 32.359 134.614 33.691 134.693 36.2754L140.705 33.7904C140.387 32.9355 139.391 32.359 138.217 32.359Z" fill="white"/>
<path d="M70.567 15.6755V14.2647H64.3586V2.59159H62.6221V15.6755H70.567ZM73.7269 4.31694C74.0508 4.31694 74.2968 4.22708 74.4647 4.04736C74.6327 3.86763 74.7167 3.64298 74.7167 3.37339C74.7167 3.1038 74.6327 2.87615 74.4647 2.69044C74.2968 2.50472 74.0508 2.41187 73.7269 2.41187C73.403 2.41187 73.1586 2.50472 72.9936 2.69044C72.8287 2.87615 72.7462 3.1038 72.7462 3.37339C72.7462 3.64298 72.8287 3.86763 72.9936 4.04736C73.1586 4.22708 73.403 4.31694 73.7269 4.31694ZM74.5457 15.6755V5.95243H72.8812V15.6755H74.5457ZM81.2507 15.8552C82.3604 15.8552 83.2632 15.5931 83.959 15.0689C84.6548 14.5447 85.0028 13.8483 85.0028 12.9796C85.0028 12.4584 84.8783 12.0166 84.6293 11.6542C84.3804 11.2917 83.998 10.9817 83.4821 10.7241C82.9663 10.4665 82.293 10.2448 81.4622 10.0591C80.6314 9.87341 80.0571 9.67871 79.7391 9.47503C79.4212 9.27134 79.2623 8.9688 79.2623 8.56742C79.2623 8.14207 79.4332 7.7976 79.7751 7.534C80.117 7.27041 80.5909 7.13861 81.1968 7.13861C81.7846 7.13861 82.272 7.30336 82.6589 7.63285C83.0458 7.96235 83.2392 8.35474 83.2392 8.81005H84.9128C84.9128 7.92341 84.5694 7.19552 83.8825 6.6264C83.1957 6.05727 82.3005 5.77271 81.1968 5.77271C80.147 5.77271 79.2848 6.04829 78.6099 6.59944C77.9351 7.15059 77.5977 7.82456 77.5977 8.62134C77.5977 9.1006 77.7162 9.51397 77.9531 9.86143C78.19 10.2089 78.556 10.5084 79.0508 10.7601C79.5457 11.0117 80.2145 11.2273 81.0573 11.4071C81.9001 11.5868 82.4909 11.801 82.8298 12.0496C83.1687 12.2982 83.3382 12.6472 83.3382 13.0965C83.3382 13.5218 83.1477 13.8618 82.7668 14.1164C82.3859 14.371 81.8806 14.4983 81.2507 14.4983C80.5669 14.4983 80.0166 14.3351 79.5997 14.0086C79.1828 13.6821 78.9593 13.2402 78.9294 12.6831H77.2648C77.2648 13.2582 77.4343 13.7929 77.7732 14.2871C78.1121 14.7814 78.5814 15.1663 79.1813 15.4419C79.7811 15.7174 80.4709 15.8552 81.2507 15.8552ZM90.4751 15.8552C90.889 15.8552 91.3149 15.7953 91.7528 15.6755V14.3276C91.4169 14.3995 91.1529 14.4354 90.961 14.4354C90.5711 14.4354 90.2951 14.3381 90.1332 14.1434C89.9712 13.9487 89.8903 13.6566 89.8903 13.2672V7.23746H91.7078V5.95243H89.8903V3.59805H88.2257V5.95243H86.4532V7.23746H88.2257V13.2672C88.2257 14.0939 88.4146 14.732 88.7925 15.1813C89.1704 15.6306 89.7313 15.8552 90.4751 15.8552ZM98.1519 15.8552C99.7834 15.8552 101.007 15.2292 101.823 13.9771L100.806 13.1863C100.5 13.5817 100.143 13.8992 99.7354 14.1389C99.3276 14.3785 98.8297 14.4983 98.2418 14.4983C97.4141 14.4983 96.7317 14.2033 96.1949 13.6132C95.658 13.0231 95.3776 12.2488 95.3536 11.2902H101.949V10.5983C101.949 9.04668 101.598 7.85451 100.896 7.02179C100.194 6.18907 99.2106 5.77271 97.9449 5.77271C97.1711 5.77271 96.4528 5.98688 95.79 6.41522C95.1272 6.84356 94.6113 7.43665 94.2424 8.19449C93.8735 8.95233 93.689 9.81351 93.689 10.778V11.0836C93.689 12.5333 94.1029 13.6911 94.9307 14.5567C95.7585 15.4224 96.8322 15.8552 98.1519 15.8552ZM100.284 9.92434H95.4076C95.5156 9.04369 95.7975 8.35924 96.2534 7.87099C96.7093 7.38274 97.2731 7.13861 97.9449 7.13861C98.6407 7.13861 99.1926 7.37076 99.6005 7.83504C100.008 8.29933 100.236 8.95382 100.284 9.79853V9.92434ZM106 15.6755V8.74714C106.228 8.27986 106.545 7.90244 106.953 7.61488C107.361 7.32732 107.835 7.18354 108.375 7.18354C109.041 7.18354 109.531 7.35128 109.846 7.68677C110.161 8.02225 110.321 8.54046 110.327 9.24138V15.6755H111.992V9.25037C111.974 6.93193 110.936 5.77271 108.879 5.77271C107.679 5.77271 106.707 6.23999 105.964 7.17456L105.91 5.95243H104.335V15.6755H106ZM123.98 15.8552C124.856 15.8552 125.631 15.6456 126.306 15.2262C126.981 14.8068 127.5 14.2212 127.863 13.4694C128.226 12.7175 128.407 11.8684 128.407 10.9218V10.805C128.407 9.28332 127.998 8.06419 127.179 7.1476C126.36 6.231 125.288 5.77271 123.962 5.77271C123.105 5.77271 122.341 5.97939 121.673 6.39276C121.004 6.80612 120.482 7.39322 120.107 8.15405C119.732 8.91489 119.545 9.77157 119.545 10.7241V10.8409C119.545 12.3506 119.954 13.5637 120.773 14.4803C121.592 15.3969 122.661 15.8552 123.98 15.8552ZM123.98 14.4983C123.141 14.4983 122.47 14.1718 121.969 13.5188C121.469 12.8658 121.218 12.0001 121.218 10.9218C121.218 9.70567 121.47 8.77111 121.974 8.11811C122.478 7.46511 123.141 7.13861 123.962 7.13861C124.802 7.13861 125.476 7.4696 125.982 8.13159C126.489 8.79357 126.743 9.65774 126.743 10.7241C126.743 11.9163 126.494 12.8434 125.996 13.5053C125.498 14.1673 124.826 14.4983 123.98 14.4983ZM132.62 15.6755V8.74714C132.848 8.27986 133.166 7.90244 133.574 7.61488C133.982 7.32732 134.455 7.18354 134.995 7.18354C135.661 7.18354 136.152 7.35128 136.466 7.68677C136.781 8.02225 136.942 8.54046 136.948 9.24138V15.6755H138.612V9.25037C138.594 6.93193 137.557 5.77271 135.499 5.77271C134.299 5.77271 133.328 6.23999 132.584 7.17456L132.53 5.95243H130.955V15.6755H132.62Z" fill="white"/>
</g>
<defs>
<clipPath id="clip0_102_193">
<rect width="250.704" height="49.2958" fill="white" transform="translate(0.774658 0.704224)"/>
</clipPath>
</defs>
</svg>
