<svg width="20" height="20" viewBox="0 0 20 20" fill="none" xmlns="http://www.w3.org/2000/svg">
<path d="M14.017 0H5.947C4.37015 0.00185307 2.85844 0.629143 1.74353 1.74424C0.628623 2.85933 0.00158794 4.37115 0 5.948L0 14.018C0.00185307 15.5948 0.629143 17.1066 1.74424 18.2215C2.85933 19.3364 4.37115 19.9634 5.948 19.965H14.018C15.5948 19.9631 17.1066 19.3359 18.2215 18.2208C19.3364 17.1057 19.9634 15.5938 19.965 14.017V5.947C19.9631 4.37015 19.3359 2.85844 18.2208 1.74353C17.1057 0.628623 15.5938 0.00158794 14.017 0ZM17.957 14.017C17.957 14.5344 17.8551 15.0468 17.6571 15.5248C17.4591 16.0028 17.1689 16.4371 16.803 16.803C16.4371 17.1689 16.0028 17.4591 15.5248 17.6571C15.0468 17.8551 14.5344 17.957 14.017 17.957H5.947C4.90222 17.9567 3.90032 17.5415 3.16165 16.8026C2.42297 16.0638 2.008 15.0618 2.008 14.017V5.947C2.00827 4.90222 2.42349 3.90032 3.16235 3.16165C3.90122 2.42297 4.90322 2.008 5.948 2.008H14.018C15.0628 2.00827 16.0647 2.42349 16.8034 3.16235C17.542 3.90122 17.957 4.90322 17.957 5.948V14.017Z" fill="white"/>
<path d="M9.98195 4.81897C8.61338 4.82109 7.30148 5.36576 6.33385 6.33358C5.36621 7.3014 4.8218 8.6134 4.81995 9.98197C4.82153 11.3509 5.36597 12.6633 6.33385 13.6314C7.30172 14.5994 8.61403 15.1441 9.98295 15.146C11.352 15.1444 12.6646 14.5998 13.6327 13.6317C14.6008 12.6636 15.1454 11.3511 15.1469 9.98197C15.1448 8.61305 14.5999 7.30085 13.6316 6.33316C12.6634 5.36547 11.3509 4.82129 9.98195 4.81997V4.81897ZM9.98195 13.138C9.14519 13.138 8.3427 12.8056 7.75102 12.2139C7.15935 11.6222 6.82695 10.8197 6.82695 9.98297C6.82695 9.14621 7.15935 8.34373 7.75102 7.75205C8.3427 7.16037 9.14519 6.82797 9.98195 6.82797C10.8187 6.82797 11.6212 7.16037 12.2129 7.75205C12.8045 8.34373 13.1369 9.14621 13.1369 9.98297C13.1369 10.8197 12.8045 11.6222 12.2129 12.2139C11.6212 12.8056 10.8187 13.138 9.98195 13.138Z" fill="white"/>
<path d="M15.1559 6.09497C15.8391 6.09497 16.3929 5.54115 16.3929 4.85797C16.3929 4.1748 15.8391 3.62097 15.1559 3.62097C14.4728 3.62097 13.9189 4.1748 13.9189 4.85797C13.9189 5.54115 14.4728 6.09497 15.1559 6.09497Z" fill="white"/>
</svg>
