<svg width="141" height="50" viewBox="0 0 141 50" fill="none" xmlns="http://www.w3.org/2000/svg">
<path fill-rule="evenodd" clip-rule="evenodd" d="M33.4347 25.7883C34.3661 26.3455 35.573 26.0362 36.1269 25.0978C36.6805 24.161 36.3742 22.9492 35.4403 22.392C27.6445 17.7415 15.3087 17.3044 7.88804 19.568C6.84923 19.8852 6.26374 20.9876 6.57831 22.0313C6.89289 23.0745 7.99065 23.6634 9.02871 23.347C15.4931 21.3753 26.6629 21.7469 33.4347 25.7883ZM33.2129 31.7742C33.6863 31.0013 33.4439 29.9878 32.674 29.5114C26.1898 25.5067 16.7048 24.3799 9.07462 26.7065C8.21015 26.9712 7.72148 27.8888 7.98263 28.7593C8.24553 29.6281 9.16041 30.1189 10.0266 29.856C16.7058 27.8185 25.3146 28.8287 30.9602 32.3162C31.7301 32.7917 32.738 32.5489 33.2129 31.7742ZM30.6423 37.5229C31.0199 36.9027 30.8255 36.0922 30.2081 35.7133C24.6708 32.313 17.8063 31.5216 9.80386 33.3602C9.09769 33.5218 8.65769 34.2274 8.81925 34.9356C8.98005 35.6435 9.6822 36.0874 10.3869 35.9251C17.6994 34.2463 23.9087 34.9308 28.8421 37.9608C29.4588 38.3399 30.265 38.1448 30.6423 37.5229ZM21.008 7.07239C32.6106 7.07239 42.0158 16.5241 42.0158 28.1838C42.0158 39.8442 32.6106 49.2957 21.008 49.2957C9.40575 49.2957 0 39.8442 0 28.1838C0 16.5241 9.40575 7.07239 21.008 7.07239ZM57.1553 26.562C61.5744 27.642 63.3766 29.3185 63.3766 32.3498C63.3766 35.9364 60.6495 38.254 56.4293 38.254C53.446 38.254 50.6818 37.1886 48.4338 35.172C48.3378 35.0868 48.3272 34.9396 48.4105 34.841L50.3963 32.466C50.437 32.4168 50.4954 32.3871 50.5591 32.3818C50.6198 32.3783 50.6856 32.3974 50.7335 32.4388C52.6654 34.12 54.3925 34.8367 56.5095 34.8367C58.4158 34.8367 59.6004 34.0078 59.6004 32.6745C59.6004 31.4709 59.0146 30.7981 55.5437 29.9946C51.4657 29.0041 49.1059 27.7209 49.1059 24.097C49.1059 20.7176 51.8415 18.3557 55.758 18.3557C58.4216 18.3557 60.7004 19.149 62.7241 20.7809C62.8222 20.86 62.842 21.0022 62.7692 21.1056L60.9982 23.6145C60.9608 23.6674 60.9049 23.7022 60.8414 23.7118C60.7779 23.7219 60.7134 23.7065 60.662 23.6679C58.9614 22.3938 57.3399 21.7749 55.7043 21.7749C54.017 21.7749 52.8821 22.5897 52.8821 23.801C52.8821 25.0827 53.5281 25.6928 57.1553 26.562ZM75.9881 30.6246C75.9881 28.1062 74.3831 26.2789 72.1727 26.2789C69.9519 26.2789 68.2766 28.1465 68.2766 30.6246C68.2766 33.103 69.9519 34.9704 72.1727 34.9704C74.4192 34.9704 75.9881 33.1842 75.9881 30.6246ZM72.9246 22.9671C76.3235 22.9671 79.7643 25.5972 79.7643 30.6246C79.7643 35.651 76.3235 38.2804 72.9246 38.2804C71.0958 38.2804 69.5951 37.5988 68.3577 36.2031V42.0599C68.3577 42.1918 68.2513 42.2992 68.1201 42.2992H64.8725C64.7413 42.2992 64.6351 42.1918 64.6351 42.0599V23.5048C64.6351 23.373 64.7413 23.2656 64.8725 23.2656H68.1201C68.2513 23.2656 68.3577 23.373 68.3577 23.5048V25.1747C69.5949 23.6911 71.0953 22.9671 72.9246 22.9671ZM88.584 34.9971C90.9346 34.9971 92.6407 33.1819 92.6407 30.6793C92.6407 28.1851 90.8736 26.3051 88.5303 26.3051C86.1951 26.3051 84.5005 28.1218 84.5005 30.6246C84.5005 33.1172 86.2558 34.9971 88.584 34.9971ZM88.584 22.9671C92.9467 22.9671 96.363 26.3306 96.363 30.6246C96.363 34.933 92.9231 38.3089 88.5303 38.3089C84.1832 38.3089 80.7775 34.9572 80.7775 30.6793C80.7775 26.3543 84.2068 22.9671 88.584 22.9671ZM105.71 23.2656C105.842 23.2656 105.947 23.373 105.947 23.5048V26.3099C105.947 26.4415 105.842 26.5489 105.71 26.5489H102.136V33.2959C102.136 34.3615 102.602 34.8367 103.643 34.8367C104.319 34.8367 104.924 34.6908 105.55 34.3744C105.622 34.3383 105.71 34.3406 105.781 34.3852C105.851 34.4286 105.894 34.5062 105.894 34.5887V37.2599C105.894 37.3451 105.848 37.4253 105.774 37.4669C104.863 37.986 103.897 38.2277 102.732 38.2277C99.8665 38.2277 98.4137 36.7406 98.4137 33.8074V26.5489H96.8521C96.7212 26.5489 96.6156 26.4415 96.6156 26.3099V23.5048C96.6156 23.373 96.7212 23.2656 96.8521 23.2656H98.4137V19.5935C98.4137 19.4616 98.5206 19.3545 98.652 19.3545H101.899C102.031 19.3545 102.136 19.4616 102.136 19.5935V23.2656H105.71ZM118.162 23.2799H123.711C123.809 23.2799 123.898 23.341 123.932 23.4337L127.726 33.3824L131.19 23.4403C131.223 23.3445 131.314 23.2799 131.415 23.2799H134.796C134.875 23.2799 134.947 23.319 134.991 23.3836C135.036 23.4491 135.045 23.532 135.017 23.6057L129.382 38.2376C128.213 41.2577 126.888 42.3806 124.489 42.3806C123.208 42.3806 122.17 42.1136 121.021 41.4882C120.911 41.4287 120.866 41.294 120.919 41.1793L122.019 38.7524C122.046 38.6916 122.098 38.6455 122.16 38.6233C122.223 38.6039 122.291 38.6092 122.349 38.6412C122.965 38.98 123.568 39.1517 124.14 39.1517C124.848 39.1517 125.366 38.9177 125.894 37.7417L121.249 26.5489H118.216V37.7447C118.216 37.8766 118.109 37.9837 117.978 37.9837H114.73C114.599 37.9837 114.494 37.8766 114.494 37.7447V26.5489H112.933C112.802 26.5489 112.695 26.4415 112.695 26.3099V23.4904C112.695 23.3589 112.802 23.2515 112.933 23.2515H114.494V22.5607C114.494 19.3507 116.079 17.6531 119.079 17.6531C120.312 17.6531 121.135 17.8507 121.779 18.0428C121.879 18.0738 121.946 18.1671 121.946 18.272V21.0224C121.946 21.099 121.911 21.1714 121.848 21.2165C121.787 21.2616 121.709 21.2735 121.634 21.2498C121.025 21.0456 120.481 20.9104 119.804 20.9104C118.669 20.9104 118.162 21.5021 118.162 22.8289V23.2799ZM110.944 23.2656C111.075 23.2656 111.182 23.373 111.182 23.5048V37.7447C111.182 37.8766 111.075 37.9837 110.944 37.9837H107.696C107.565 37.9837 107.458 37.8766 107.458 37.7447V23.5048C107.458 23.373 107.565 23.2656 107.696 23.2656H110.944ZM109.336 16.7818C110.622 16.7818 111.665 17.8288 111.665 19.1218C111.665 20.4153 110.622 21.4633 109.336 21.4633C108.05 21.4633 107.005 20.4153 107.005 19.1218C107.005 17.8288 108.05 16.7818 109.336 16.7818ZM137.922 24.6821H137.327V25.4447H137.922C138.219 25.4447 138.397 25.2988 138.397 25.063C138.397 24.815 138.219 24.6821 137.922 24.6821ZM138.308 25.7699L138.954 26.6795H138.409L137.827 25.8453H137.327V26.6795H136.871V24.2687H137.941C138.498 24.2687 138.865 24.5551 138.865 25.0376C138.865 25.4329 138.637 25.6744 138.308 25.7699ZM137.801 23.4662C136.631 23.4662 135.744 24.4015 135.744 25.5468C135.744 26.6914 136.624 27.6143 137.789 27.6143C138.96 27.6143 139.847 26.6795 139.847 25.5337C139.847 24.3889 138.966 23.4662 137.801 23.4662ZM137.789 27.844C136.504 27.844 135.504 26.8066 135.504 25.5468C135.504 24.2868 136.517 23.2378 137.801 23.2378C139.086 23.2378 140.087 24.275 140.087 25.5337C140.087 26.7935 139.074 27.844 137.789 27.844Z" fill="#1ED760"/>
<path fill-rule="evenodd" clip-rule="evenodd" d="M58.3738 11.0571H51.436V0.229085H53.5449V9.04118H58.3738V11.0571ZM63.403 11.0571H61.2636V0.229085H63.403V11.0571ZM74.6059 2.8101L72.711 3.39044C72.604 2.79482 72.115 1.86322 70.7397 1.86322C69.7158 1.86322 69.0434 2.51992 69.0434 3.23772C69.0434 3.83334 69.4255 4.30678 70.2201 4.4595L71.733 4.74967C73.7043 5.13148 74.7587 6.41435 74.7587 7.94158C74.7587 9.60626 73.3681 11.2862 70.8466 11.2862C67.9738 11.2862 66.7054 9.43826 66.5373 7.89576L68.4933 7.37651C68.585 8.44556 69.3338 9.40772 70.8619 9.40772C71.9927 9.40772 72.6193 8.84264 72.6193 8.07903C72.6193 7.45287 72.1456 6.96415 71.3051 6.79616L69.7922 6.49071C68.0654 6.13945 66.9499 5.02458 66.9499 3.39044C66.9499 1.46614 68.6767 0 70.7244 0C73.3528 0 74.3614 1.58831 74.6059 2.8101ZM86.0227 2.22975H82.5997V11.0571H80.4755V2.22975H77.0525V0.229085H86.0227V2.22975ZM95.6974 11.0571H88.9125V0.229085H95.6974V2.21448H91.0213V4.68859H95.2543V6.56708H91.0213V9.07173H95.6974V11.0571ZM108.367 11.0571H106.152L101.231 3.37517V11.0571H99.1221V0.229085H101.75L106.258 7.39178V0.229085H108.367V11.0571ZM118.594 5.63547C118.594 8.07903 120.305 9.23972 121.971 9.23972C123.652 9.23972 125.363 8.07903 125.363 5.63547C125.363 3.1919 123.652 2.03121 121.971 2.03121C120.305 2.03121 118.594 3.1919 118.594 5.63547ZM116.409 5.65074C116.409 2.15339 119.037 0 121.971 0C124.92 0 127.549 2.15339 127.549 5.65074C127.549 9.13282 124.92 11.2862 121.971 11.2862C119.037 11.2862 116.409 9.13282 116.409 5.65074ZM140.066 11.0571H137.85L132.929 3.37517V11.0571H130.821V0.229085H133.449L137.957 7.39178V0.229085H140.066V11.0571Z" fill="white"/>
</svg>
