<svg width="135" height="30" viewBox="0 0 135 30" fill="none" xmlns="http://www.w3.org/2000/svg">
<g clip-path="url(#clip0_36_321)">
<path d="M42.1522 4.69412C41.6581 2.85882 40.211 1.41176 38.3757 0.917647C35.0228 0 21.611 0 21.611 0C21.611 0 8.19926 0 4.84632 0.882353C3.04632 1.37647 1.56397 2.85882 1.06985 4.69412C0.1875 8.04706 0.1875 15 0.1875 15C0.1875 15 0.1875 21.9882 1.06985 25.3059C1.56397 27.1412 3.01103 28.5882 4.84632 29.0824C8.23456 30 21.611 30 21.611 30C21.611 30 35.0228 30 38.3757 29.1176C40.211 28.6235 41.6581 27.1765 42.1522 25.3412C43.0346 21.9882 43.0346 15.0353 43.0346 15.0353C43.0346 15.0353 43.0699 8.04706 42.1522 4.69412Z" fill="white"/>
<path d="M17.3405 21.4235L28.4934 14.9999L17.3405 8.57642V21.4235Z" fill="#1E1E1E"/>
<path d="M62.4111 27.3177C61.564 26.7529 60.964 25.8706 60.6111 24.6353C60.2581 23.4353 60.0817 21.8118 60.0817 19.8353V17.1177C60.0817 15.1059 60.2934 13.4824 60.6817 12.2471C61.1052 11.0118 61.7405 10.1294 62.5875 9.56471C63.4699 9 64.5993 8.71765 66.0111 8.71765C67.3875 8.71765 68.517 9 69.364 9.56471C70.2111 10.1294 70.8111 11.0471 71.1993 12.2471C71.5875 13.4471 71.7993 15.0706 71.7993 17.1177V19.8353C71.7993 21.8471 71.6228 23.4353 71.2346 24.6706C70.8464 25.8706 70.2464 26.7882 69.3993 27.3529C68.5523 27.9177 67.3875 28.2 65.9405 28.2C64.4581 28.1647 63.2581 27.8824 62.4111 27.3177ZM67.1758 24.3529C67.4228 23.7529 67.5287 22.7294 67.5287 21.3529V15.4941C67.5287 14.1529 67.4228 13.1647 67.1758 12.5294C66.9287 11.8941 66.5405 11.6118 65.9405 11.6118C65.3758 11.6118 64.9523 11.9294 64.7405 12.5294C64.4934 13.1647 64.3875 14.1529 64.3875 15.4941V21.3529C64.3875 22.7294 64.4934 23.7529 64.7405 24.3529C64.9523 24.9529 65.3758 25.2706 65.9758 25.2706C66.5405 25.2706 66.9287 24.9882 67.1758 24.3529Z" fill="white"/>
<path d="M127.564 19.8705V20.8234C127.564 22.0234 127.599 22.9411 127.67 23.5411C127.74 24.1411 127.882 24.5999 128.129 24.847C128.34 25.1293 128.693 25.2705 129.187 25.2705C129.823 25.2705 130.246 25.0234 130.493 24.5293C130.74 24.0352 130.846 23.2234 130.882 22.0587L134.517 22.2705C134.552 22.447 134.552 22.6587 134.552 22.9411C134.552 24.6705 134.093 25.9764 133.14 26.8234C132.188 27.6705 130.846 28.094 129.117 28.094C127.035 28.094 125.587 27.4234 124.74 26.1176C123.893 24.8117 123.47 22.7999 123.47 20.047V16.7646C123.47 13.9411 123.893 11.894 124.776 10.5881C125.658 9.28227 127.14 8.64697 129.223 8.64697C130.67 8.64697 131.799 8.92933 132.576 9.45874C133.352 9.98815 133.882 10.8352 134.199 11.9293C134.517 13.0587 134.658 14.6117 134.658 16.5881V19.7999H127.564V19.8705ZM128.093 11.9646C127.882 12.247 127.74 12.6705 127.67 13.2705C127.599 13.8705 127.564 14.7881 127.564 16.0234V17.3646H130.67V16.0234C130.67 14.8234 130.635 13.9058 130.564 13.2705C130.493 12.6352 130.317 12.2117 130.105 11.9646C129.893 11.7176 129.54 11.5764 129.117 11.5764C128.623 11.5411 128.305 11.6823 128.093 11.9646Z" fill="white"/>
<path d="M52.1052 19.5176L47.3052 2.11755H51.5052L53.1993 9.98814C53.6228 11.9293 53.9405 13.5881 54.1522 14.9646H54.2581C54.3993 13.9764 54.7169 12.3528 55.2111 10.0234L56.9758 2.11755H61.1758L56.3052 19.5176V27.847H52.1405V19.5176H52.1052Z" fill="white"/>
<path d="M85.4581 9.07056V27.8823H82.1405L81.7875 25.5882H81.6817C80.7993 27.3176 79.4228 28.2 77.6228 28.2C76.3875 28.2 75.4699 27.7764 74.8699 26.9647C74.2699 26.1529 73.9875 24.8823 73.9875 23.1176V9.07056H78.2228V22.8706C78.2228 23.7176 78.3287 24.3176 78.5052 24.6706C78.6817 25.0235 78.9993 25.2 79.4228 25.2C79.7758 25.2 80.1287 25.0941 80.4817 24.847C80.8346 24.6353 81.0817 24.3529 81.2228 24V9.07056H85.4581Z" fill="white"/>
<path d="M107.164 9.07056V27.8823H103.846L103.493 25.5882H103.387C102.505 27.3176 101.129 28.2 99.3286 28.2C98.0934 28.2 97.1757 27.7764 96.5757 26.9647C95.9757 26.1529 95.6934 24.8823 95.6934 23.1176V9.07056H99.9287V22.8706C99.9287 23.7176 100.035 24.3176 100.211 24.6706C100.387 25.0235 100.705 25.2 101.129 25.2C101.482 25.2 101.835 25.0941 102.187 24.847C102.54 24.6353 102.787 24.3529 102.929 24V9.07056H107.164Z" fill="white"/>
<path d="M96.964 5.54108H92.764V27.847H88.6346V5.54108H84.4346V2.11755H96.964V5.54108Z" fill="white"/>
<path d="M121.176 12.0706C120.929 10.8706 120.505 10.0235 119.94 9.49409C119.376 8.96467 118.564 8.68232 117.576 8.68232C116.799 8.68232 116.058 8.89408 115.388 9.35291C114.717 9.77644 114.188 10.3764 113.835 11.0823H113.799V1.16467H109.705V27.847H113.199L113.623 26.0823H113.729C114.046 26.7176 114.54 27.2117 115.211 27.6C115.882 27.9529 116.588 28.1647 117.399 28.1647C118.846 28.1647 119.87 27.4941 120.54 26.1882C121.211 24.8823 121.564 22.8 121.564 20.0117V17.047C121.529 14.8941 121.423 13.2353 121.176 12.0706ZM117.293 19.7294C117.293 21.1059 117.223 22.1647 117.117 22.9411C117.011 23.7176 116.799 24.2823 116.552 24.6C116.27 24.9176 115.917 25.0941 115.493 25.0941C115.141 25.0941 114.823 25.0235 114.54 24.847C114.258 24.6706 114.011 24.4235 113.835 24.1059V13.447C113.976 12.9529 114.223 12.5294 114.576 12.1764C114.929 11.8588 115.317 11.6823 115.705 11.6823C116.129 11.6823 116.482 11.8588 116.693 12.1764C116.941 12.5294 117.082 13.0941 117.188 13.8706C117.293 14.6823 117.329 15.8117 117.329 17.2588V19.7294H117.293Z" fill="white"/>
</g>
<defs>
<clipPath id="clip0_36_321">
<rect width="134.435" height="30" fill="white" transform="translate(0.1875)"/>
</clipPath>
</defs>
</svg>
